<svg width="18" height="16" viewBox="0 0 18 16" fill="none" xmlns="http://www.w3.org/2000/svg">
<path d="M8.86893 2.8229L9.00017 3.06002L9.13141 2.8229C9.48773 2.17913 10.0076 1.64078 10.6385 1.26221C11.2682 0.884404 11.9863 0.679095 12.7205 0.666899C13.8941 0.719058 14.9996 1.23299 15.796 2.0968C16.5935 2.96169 17.0162 4.10703 16.9718 5.28259L16.9717 5.28258V5.28824C16.9717 6.39572 16.5232 7.55879 15.8302 8.69205C15.1382 9.82374 14.2099 10.9137 13.2678 11.8717C11.384 13.7877 9.45986 15.1618 9.30472 15.2717C9.3047 15.2717 9.30469 15.2717 9.30467 15.2717L9.00017 15.4872L8.69602 15.272C8.69595 15.2719 8.69588 15.2719 8.6958 15.2718C8.53899 15.1601 6.61563 13.7863 4.7325 11.8712C3.79044 10.9132 2.86212 9.82343 2.17013 8.69185C1.47718 7.5587 1.02864 6.39571 1.02864 5.28824H1.02875L1.02854 5.28259C0.984177 4.10703 1.40688 2.96169 2.2043 2.0968C3.00072 1.23299 4.10625 0.719058 5.27989 0.666899C6.01407 0.679095 6.73211 0.884404 7.36179 1.26221C7.99274 1.64078 8.51262 2.17913 8.86893 2.8229ZM8.9104 14.1248L9.00017 14.1919L9.08994 14.1248C10.1963 13.2984 11.8965 11.8708 13.3219 10.2666C14.0346 9.46454 14.6817 8.6149 15.1513 7.7713C15.6192 6.93067 15.9171 6.08508 15.9181 5.2923C15.9654 4.39782 15.6576 3.52078 15.0616 2.85196C14.4647 2.18212 13.6272 1.77548 12.7317 1.72071L12.7225 1.72015L12.7134 1.72071C11.8179 1.77548 10.9803 2.18212 10.3835 2.85196C9.82175 3.48233 9.51605 4.29767 9.52233 5.13824H8.47802C8.4843 4.29767 8.1786 3.48233 7.61688 2.85196C7.02 2.18212 6.18247 1.77548 5.28696 1.72071L5.2778 1.72015L5.26865 1.72071C4.37314 1.77548 3.53561 2.18212 2.93873 2.85196C2.34275 3.52078 2.03497 4.39782 2.08223 5.2923C2.08325 6.08475 2.38113 6.93018 2.84906 7.77073C3.31866 8.61427 3.96574 9.46394 4.67846 10.2661C6.10385 11.8704 7.80407 13.2984 8.9104 14.1248Z" fill="#06162F" stroke="white" stroke-width="0.3"/>
</svg>
