<svg width="12" height="14" viewBox="0 0 12 14" fill="none" xmlns="http://www.w3.org/2000/svg">
<path d="M11.6667 13.6666H0.333333C0.244928 13.6666 0.160143 13.6315 0.0976311 13.569C0.035119 13.5065 0 13.4217 0 13.3333V12.6666C0 12.5782 0.035119 12.4935 0.0976311 12.4309C0.160143 12.3684 0.244928 12.3333 0.333333 12.3333H2.4842C1.79965 11.7345 1.28002 10.9701 0.974937 10.1133C0.669851 9.25649 0.589487 8.33576 0.741518 7.43903C0.893549 6.5423 1.2729 5.69952 1.84335 4.99113C2.41381 4.28274 3.15632 3.7324 4 3.39265V0.666646C4 0.578241 4.03512 0.493456 4.09763 0.430944C4.16014 0.368432 4.24493 0.333313 4.33333 0.333313H5C5.08841 0.333313 5.17319 0.368432 5.2357 0.430944C5.29821 0.493456 5.33333 0.578241 5.33333 0.666646V3.04665C5.77563 2.98487 6.22437 2.98487 6.66667 3.04665V0.666646C6.66667 0.578241 6.70179 0.493456 6.7643 0.430944C6.82681 0.368432 6.91159 0.333313 7 0.333313H7.66667C7.75507 0.333313 7.83986 0.368432 7.90237 0.430944C7.96488 0.493456 8 0.578241 8 0.666646V3.39265C8.92863 3.7694 9.73257 4.39975 10.32 5.21167C10.9074 6.0236 11.2546 6.98437 11.322 7.98425C11.3239 8.02957 11.3165 8.0748 11.3004 8.11721C11.2843 8.15961 11.2597 8.1983 11.2282 8.23094C11.1967 8.26357 11.1589 8.28947 11.1171 8.30707C11.0753 8.32467 11.0304 8.3336 10.985 8.33331H10.3183C10.233 8.33206 10.1514 8.29845 10.0899 8.23928C10.0284 8.1801 9.9917 8.09979 9.9872 8.01458C9.93446 7.36953 9.72612 6.74689 9.38002 6.2C9.03392 5.65311 8.56039 5.19829 8 4.87451V6.66665C8 6.75505 7.96488 6.83984 7.90237 6.90235C7.83986 6.96486 7.75507 6.99998 7.66667 6.99998H7C6.91159 6.99998 6.82681 6.96486 6.7643 6.90235C6.70179 6.83984 6.66667 6.75505 6.66667 6.66665V4.39331C6.22585 4.31305 5.77415 4.31305 5.33333 4.39331V6.66665C5.33333 6.75505 5.29821 6.83984 5.2357 6.90235C5.17319 6.96486 5.08841 6.99998 5 6.99998H4.33333C4.24493 6.99998 4.16014 6.96486 4.09763 6.90235C4.03512 6.83984 4 6.75505 4 6.66665V4.87451C3.30674 5.27431 2.74944 5.87297 2.40021 6.59303C2.05099 7.31309 1.92592 8.12138 2.0412 8.91331C2.20418 9.8805 2.70831 10.7573 3.4622 11.3847C4.21609 12.0121 5.16983 12.3487 6.15053 12.3333H11.6667C11.7551 12.3333 11.8399 12.3684 11.9024 12.4309C11.9649 12.4935 12 12.5782 12 12.6666V13.3333C12 13.4217 11.9649 13.5065 11.9024 13.569C11.8399 13.6315 11.7551 13.6666 11.6667 13.6666Z" fill="#06162F"/>
</svg>
