<svg width="52" height="52" viewBox="0 0 52 52" fill="none" xmlns="http://www.w3.org/2000/svg">
<path d="M24.6656 19.5756L23.3209 19.936L22.3601 16.3501C22.0946 15.3595 21.0774 14.7722 20.0868 15.0376L16.5009 15.9985L16.1406 14.6538C15.8091 13.4167 14.536 12.6817 13.2989 13.0131C12.0618 13.3446 11.3268 14.6177 11.6582 15.8548L12.0185 17.1995L8.43274 18.1603C7.44214 18.4258 6.86377 19.4407 7.12925 20.4313L8.03754 23.839L9.3777 23.4799C10.7134 23.122 12.0888 23.9161 12.4467 25.2518C12.8046 26.5876 12.0105 27.9629 10.6748 28.3208L9.3346 28.6799L10.2429 32.0877C10.5084 33.0783 11.5256 33.6656 12.5162 33.4002L15.9229 32.4874L15.5626 31.1427C15.2046 29.8069 15.9987 28.4316 17.3344 28.0737C18.6702 27.7158 20.0455 28.5099 20.4034 29.8456L20.7637 31.1903L24.1703 30.2775C25.1609 30.012 25.7482 28.9948 25.4828 28.0042L24.5219 24.4183L25.8666 24.058C27.1038 23.7265 27.8388 22.4534 27.5073 21.2163C27.1758 19.9793 25.9028 19.2442 24.6656 19.5756Z" fill="#FDD661"/>
<path d="M15.8031 31.3011L16.1634 32.6458L12.5776 33.6066C11.587 33.872 10.9996 34.8893 11.265 35.8799L12.2259 39.4658L10.8812 39.8261C9.64407 40.1576 8.90909 41.4307 9.24053 42.6678C9.57203 43.9049 10.8451 44.6399 12.0822 44.3084L13.4269 43.9481L14.3877 47.534C14.6532 48.5246 15.6681 49.1029 16.6587 48.8375L20.0664 47.9292L19.7074 46.589C19.3495 45.2533 20.1435 43.8779 21.4792 43.52C22.815 43.1621 24.1903 43.9561 24.5482 45.2919L24.9074 46.6321L28.3151 45.7238C29.3057 45.4583 29.893 44.441 29.6276 43.4504L28.7148 40.0439L27.3701 40.4042C26.0344 40.7621 24.659 39.968 24.3011 38.6323C23.9432 37.2965 24.7373 35.9212 26.073 35.5633L27.4177 35.203L26.5049 31.7964C26.2395 30.8059 25.2222 30.2185 24.2316 30.4839L20.6457 31.4447L20.2854 30.1001C19.954 28.8629 18.6809 28.128 17.4438 28.4594C16.2067 28.7909 15.4716 30.0639 15.8031 31.3011Z" fill="#28BB90"/>
<path d="M27.5397 40.1637L28.8844 39.8034L29.8452 43.3892C30.1107 44.3798 31.128 44.9671 32.1186 44.7017L35.7044 43.7409L36.0648 45.0856C36.3962 46.3227 37.6693 47.0577 38.9065 46.7262C40.1436 46.3947 40.8786 45.1217 40.5471 43.8846L40.1867 42.5399L43.7726 41.5791C44.7632 41.3136 45.3416 40.2987 45.0761 39.3081L44.1678 35.9003L42.8277 36.2594C41.4919 36.6174 40.1165 35.8233 39.7586 34.4876C39.4007 33.1518 40.1948 31.7764 41.5305 31.4185L42.8707 31.0595L41.9625 27.6517C41.697 26.6611 40.6797 26.0737 39.6891 26.3392L36.2825 27.252L36.6428 28.5966C37.0007 29.9324 36.2067 31.3078 34.8709 31.6657C33.5352 32.0236 32.1599 31.2295 31.802 29.8938L31.4416 28.5491L28.0351 29.4618C27.0445 29.7273 26.4572 30.7446 26.7226 31.7352L27.6834 35.3211L26.3387 35.6814C25.1016 36.0129 24.3666 37.2859 24.6981 38.523C25.0296 39.7601 26.3026 40.4951 27.5397 40.1637Z" fill="#3970CE"/>
<path d="M37.2196 20.3473L36.2352 19.363L38.8602 16.738C39.5854 16.0128 39.5854 14.8381 38.8602 14.113L36.2352 11.4879L37.2196 10.5035C38.1252 9.59792 38.1252 8.12789 37.2196 7.22227C36.3139 6.31661 34.8439 6.31661 33.9383 7.22227L32.9539 8.20664L30.3289 5.58161C29.6038 4.85646 28.4356 4.86301 27.7104 5.58819L25.2134 8.0787L26.1945 9.05979C27.1723 10.0376 27.1723 11.6257 26.1945 12.6036C25.2166 13.5814 23.6285 13.5814 22.6507 12.6036L21.6696 11.6225L19.1726 14.113C18.4474 14.8381 18.4474 16.0128 19.1726 16.738L21.6663 19.2317L22.6507 18.2474C23.6285 17.2696 25.2167 17.2696 26.1945 18.2474C27.1723 19.2252 27.1723 20.8133 26.1945 21.7912L25.2101 22.7755L27.7038 25.2693C28.429 25.9944 29.6037 25.9945 30.3289 25.2693L32.9539 22.6443L33.9383 23.6287C34.8439 24.5343 36.3139 24.5343 37.2196 23.6287C38.1252 22.723 38.1252 21.253 37.2196 20.3473Z" fill="#CF3A40"/>
</svg>
