<svg width="14" height="17" viewBox="0 0 14 17" fill="none" xmlns="http://www.w3.org/2000/svg">
<path d="M2.98337 4.66667C2.98337 2.44832 4.7817 0.65 7.00004 0.65C9.21838 0.65 11.0167 2.44832 11.0167 4.66667C11.0167 6.88501 9.21838 8.68333 7.00004 8.68333C4.7817 8.68333 2.98337 6.88501 2.98337 4.66667ZM7.00004 7.31667C8.4636 7.31667 9.65004 6.13022 9.65004 4.66667C9.65004 3.20311 8.4636 2.01667 7.00004 2.01667C5.53649 2.01667 4.35004 3.20311 4.35004 4.66667C4.35004 6.13022 5.53649 7.31667 7.00004 7.31667ZM1.85222 16.1833H0.485098C0.523598 14.5093 1.20535 12.9121 2.39206 11.7254C3.61417 10.5032 5.27171 9.81667 7.00004 9.81667C8.72837 9.81667 10.3859 10.5032 11.608 11.7254C12.7947 12.9121 13.4765 14.5093 13.515 16.1833H12.1479C12.1097 14.8719 11.572 13.6221 10.6416 12.6917C9.67583 11.7259 8.36591 11.1833 7.00004 11.1833C5.63418 11.1833 4.32425 11.7259 3.35844 12.6917C2.42804 13.6221 1.8904 14.8719 1.85222 16.1833Z" fill="#06162F" stroke="white" stroke-width="0.3"/>
</svg>
