<svg width="18" height="18" viewBox="0 0 18 18" fill="none" xmlns="http://www.w3.org/2000/svg">
<path d="M13.0166 4.83329V4.98329H13.1666H17.1833V15.25C17.1833 15.7627 16.9796 16.2545 16.617 16.617C16.2545 16.9796 15.7627 17.1833 15.25 17.1833H2.74996C2.23721 17.1833 1.74546 16.9796 1.38289 16.617C1.02032 16.2545 0.816626 15.7627 0.816626 15.25V4.98329H4.83329H4.98329V4.83329C4.98329 3.76801 5.40648 2.74635 6.15975 1.99308C6.91302 1.23981 7.93467 0.816626 8.99996 0.816626C10.0652 0.816626 11.0869 1.23981 11.8402 1.99308C12.5934 2.74635 13.0166 3.76801 13.0166 4.83329ZM11.7777 4.98329H11.9277V4.83329C11.9277 4.0568 11.6193 3.31211 11.0702 2.76304C10.5211 2.21398 9.77645 1.90551 8.99996 1.90551C8.22346 1.90551 7.47877 2.21398 6.92971 2.76304C6.38064 3.31211 6.07218 4.0568 6.07218 4.83329V4.98329H6.22218H11.7777ZM2.05551 6.07218H1.90551V6.22218V15.25C1.90551 15.4739 1.99448 15.6887 2.15285 15.8471C2.31121 16.0054 2.526 16.0944 2.74996 16.0944H15.25C15.4739 16.0944 15.6887 16.0054 15.8471 15.8471C16.0054 15.6887 16.0944 15.4739 16.0944 15.25V6.22218V6.07218H15.9444H13.1666H13.0166V6.22218V7.46107H11.9277V6.22218V6.07218H11.7777H6.22218H6.07218V6.22218V7.46107H4.98329V6.22218V6.07218H4.83329H2.05551Z" fill="#06162F" stroke="white" stroke-width="0.3"/>
</svg>
